<?xml version="1.0" encoding="UTF-8" standalone="no"?>
<!-- Created with Inkscape (http://www.inkscape.org/) -->

<svg
   width="1200"
   height="628"
   viewBox="0 0 1200 627.99999"
   id="svg3074"
   version="1.1"
   inkscape:version="1.1 (c68e22c387, 2021-05-23)"
   sodipodi:docname="activity-diagram-sales-forecasting.svg"
   xmlns:inkscape="http://www.inkscape.org/namespaces/inkscape"
   xmlns:sodipodi="http://sodipodi.sourceforge.net/DTD/sodipodi-0.dtd"
   xmlns="http://www.w3.org/2000/svg"
   xmlns:svg="http://www.w3.org/2000/svg"
   xmlns:rdf="http://www.w3.org/1999/02/22-rdf-syntax-ns#"
   xmlns:cc="http://creativecommons.org/ns#"
   xmlns:dc="http://purl.org/dc/elements/1.1/">
  <defs
     id="defs3076" />
  <sodipodi:namedview
     id="base"
     pagecolor="#ffffff"
     bordercolor="#666666"
     borderopacity="1.0"
     inkscape:pageopacity="0.0"
     inkscape:pageshadow="2"
     inkscape:zoom="0.49497475"
     inkscape:cx="593.9697"
     inkscape:cy="201.02036"
     inkscape:document-units="px"
     inkscape:current-layer="g4557"
     showgrid="true"
     fit-margin-top="0"
     fit-margin-left="0"
     fit-margin-right="0"
     fit-margin-bottom="0"
     inkscape:window-width="1920"
     inkscape:window-height="1017"
     inkscape:window-x="-8"
     inkscape:window-y="-8"
     inkscape:window-maximized="1"
     inkscape:pagecheckerboard="0">
    <inkscape:grid
       type="xygrid"
       id="grid4534" />
  </sodipodi:namedview>
  <metadata
     id="metadata3079">
    <rdf:RDF>
      <cc:Work
         rdf:about="">
        <dc:format>image/svg+xml</dc:format>
        <dc:type
           rdf:resource="http://purl.org/dc/dcmitype/StillImage" />
        <dc:title />
      </cc:Work>
    </rdf:RDF>
  </metadata>
  <g
     inkscape:label="Layer 1"
     inkscape:groupmode="layer"
     id="layer1"
     transform="translate(-65.92535,87.936907)">
    <g
       transform="translate(949.19457,-59.775329)"
       id="g3027">
      <g
         transform="matrix(0.47067025,0,0,0.45465386,182.04424,301.30239)"
         id="g11216" />
      <g
         id="g4528"
         transform="matrix(1.5538134,0,0,1.5538134,488.05873,-207.03657)">
        <g
           transform="matrix(0.47067025,0,0,0.45465386,184.04428,104.99485)"
           id="g3068" />
        <g
           id="g4557"
           transform="translate(0,-27.661185)">
          <path
             inkscape:connector-curvature="0"
             id="path2466"
             d="m -678.93358,335.95876 h 46.93736 l -0.086,27.62601 21.80811,-22.39765 21.80806,-22.40888 -21.66836,-22.82491 -21.67913,-22.83615 -0.0753,26.86142 h -47.04483 z"
             style="fill:none;fill-opacity:1;stroke:#333333;stroke-width:2.44385433;stroke-miterlimit:4;stroke-dasharray:none;stroke-opacity:1" />
          <path
             inkscape:connector-curvature="0"
             id="path2466-4"
             d="m -403.86316,335.95888 h 46.93736 l -0.086,27.62602 21.80811,-22.39765 21.80806,-22.40889 -21.66836,-22.8249 -21.67913,-22.83615 -0.0753,26.86143 h -47.04483 z"
             style="fill:none;fill-opacity:1;stroke:#333333;stroke-width:2.44385409;stroke-miterlimit:4;stroke-dasharray:none" />
          <g
             id="g3191"
             transform="matrix(0.11912451,0,0,0.11704207,-194.89802,267.67366)"
             style="fill:#77b753">
            <polygon
               style="fill:#77b753"
               points="95.406,121.734 95.406,69.265 57.744,56.31 57.744,108.871 "
               id="polygon193"
               transform="matrix(13.239003,0,0,13.705381,-1563.3724,-696.08521)" />
            <polygon
               style="fill:#77b753"
               points="95.406,121.734 95.406,69.265 135.846,57.052 136.075,109.659 "
               id="polygon200"
               transform="matrix(13.239003,0,0,13.705381,-1519.8837,-695.36249)" />
            <polygon
               style="fill:#77b753"
               points="135.846,57.052 95.499,69.265 57.744,56.31 97.904,44.281 "
               id="polygon207"
               transform="matrix(13.239003,0,0,13.705381,-1543.1252,-733.57732)" />
          </g>
          <text
             xml:space="preserve"
             style="font-style:normal;font-weight:normal;font-size:27.4593px;line-height:0%;font-family:sans-serif;letter-spacing:0px;word-spacing:0px;fill:#333333;fill-opacity:1;stroke:none;stroke-width:0.462593"
             x="-328.73215"
             y="431.42249"
             id="text3221-5"><tspan
               sodipodi:role="line"
               id="tspan3223-5"
               x="-328.73215"
               y="431.42249"
               style="font-style:normal;font-variant:normal;font-weight:normal;font-stretch:normal;font-size:27.4593px;line-height:1.25;font-family:Roboto;-inkscape-font-specification:Roboto;fill:#333333;fill-opacity:1;stroke-width:0.462593">Predictive model</tspan></text>
          <path
             id="path5"
             d="m -558.55906,333.9179 c -9.19729,-34.45166 11.17295,-69.86574 45.4976,-79.09728 34.32349,-9.23265 69.60614,11.21494 78.80124,45.66656 9.19729,34.45378 -11.17294,69.86798 -45.49759,79.09944 -34.3235,9.23152 -69.60396,-11.21375 -78.80125,-45.66872 m 64.75638,-76.1967 -1.28798,0.64347 c -2.37078,1.15229 -4.15003,3.19197 -6.07486,5.61353 -1.9238,2.4238 -3.81229,5.20296 -5.70628,7.82209 -1.89508,2.62246 -3.77914,5.09701 -5.33757,6.62567 -0.77709,0.76598 -1.47682,1.33219 -1.93046,1.56508 -0.45801,0.23288 -0.52647,0.16776 -0.46134,0.18431 l -0.0927,-0.0916 h -0.0927 c -1.67875,-0.3256 -2.56398,-0.85538 -3.2196,-1.56507 -0.65672,-0.71301 -1.09158,-1.67326 -1.47343,-2.94584 -0.75941,-2.5452 -0.76819,-6.05944 -2.85314,-9.20285 l -1.1037,-1.65559 -1.83989,0.55187 c -0.0551,0.0155 -0.97901,0 -2.57718,0.46025 l -2.39399,0.64458 0.55185,2.39177 c 1.32997,6.09585 5.75256,9.65979 2.02534,17.39468 h -0.0916 v 0.0917 c -0.97575,2.20524 -2.5243,3.80454 -4.69309,5.80006 -2.17104,1.99222 -4.91374,4.29238 -7.63886,7.72827 l -1.1037,1.47348 1.011,1.56397 c 0.0828,0.12693 0.0817,0.34878 0.36865,0.8289 0.28916,0.47902 1.08606,1.23838 1.93149,1.56397 l 1.56509,0.64346 1.19645,-1.19532 c 5.0263,-5.09257 8.17193,-8.37725 10.03169,-9.94123 0.6821,-0.57394 0.93594,-0.68762 1.19645,-0.82669 0.0827,0.74722 0.0981,1.96132 0,3.49659 -0.21743,3.33435 -0.84549,7.96887 -1.37965,12.88376 -0.5364,4.916 -0.96248,10.13222 -0.7362,14.81747 0.02,0.41942 0.15564,0.78483 0.18544,1.19647 -2.59596,-2.65224 -5.28795,-5.47114 -9.20504,-5.61352 h -1.01209 l -0.7362,0.55185 c -0.78364,0.62911 -2.20188,1.78361 -3.31229,4.23277 l -1.10364,2.6688 2.66879,0.92159 c 8.86838,3.03303 13.47975,7.40157 15.92111,11.04275 1.21849,1.82117 1.82892,3.48785 2.20744,4.69531 0.19096,0.60371 0.30685,1.03858 0.36865,1.38075 0.0618,0.33995 0.0917,0.74614 0.0917,0.46021 v 0.18545 l 0.0938,0.27377 c 0.55191,2.76921 -0.76043,6.15542 -2.67096,9.66416 -1.9106,3.50869 -4.36304,6.84416 -5.06174,10.58465 l -0.46019,2.20753 2.21078,0.73619 c -0.18653,-0.0596 0.34436,0.25053 0.82665,0.73725 0.24173,0.24286 0.3532,0.47683 1.10479,0.91943 0.3764,0.22185 1.14125,0.64232 2.3002,0.27592 1.00434,-0.31566 1.52644,-1.10809 1.75047,-1.65667 v -0.0928 c 2.76487,-6.94247 5.45795,-13.70492 11.503,-17.57791 l 0.0917,-0.0916 0.1843,-0.0916 c 4.19528,-3.42489 9.11562,-4.10145 14.53934,-3.95685 5.42699,0.14238 11.14538,1.27483 16.38365,1.01101 l 1.9315,-0.0916 0.46024,-2.02536 c 0.0176,-0.0673 0.20859,-0.83217 0.36865,-1.56503 0.0816,-0.36534 0.20198,-0.64572 0.18538,-1.28699 -0.01,-0.32116 -0.0164,-0.82 -0.36864,-1.47344 -0.35205,-0.65345 -1.41824,-1.42599 -2.30008,-1.47233 -9.17639,-0.48011 -16.11661,0.0585 -20.2478,-0.27593 -2.06502,-0.16562 -3.3255,-0.58281 -3.77248,-0.92054 -0.39076,-0.29477 -0.59607,-0.60932 -0.64351,-1.65673 0.0551,-0.0784 0.10039,-0.0784 0.18212,-0.18323 0.46024,-0.58053 1.31234,-1.59487 2.39398,-2.66879 2.16328,-2.15118 5.28904,-4.86521 8.6521,-7.73157 3.36191,-2.86642 6.87728,-5.81553 10.03054,-8.18961 3.15224,-2.37742 6.03851,-4.29352 7.26913,-4.87844 h 0.18435 l 0.0916,-0.18434 c 1.80239,-1.17879 6.331,-1.0728 11.78114,0.0927 5.4491,1.16662 11.68729,3.10811 17.39241,4.14007 l 1.9338,0.36863 0.92043,-1.8399 c 0.28589,-0.58609 0.93709,-1.68096 0.8278,-3.31446 l -0.0904,-1.93161 -1.93264,-0.46021 c -9.91362,-2.15006 -16.36597,-3.36086 -19.97076,-4.5098 -1.80348,-0.57509 -2.84096,-1.13795 -3.22178,-1.47239 -0.37961,-0.33445 -0.35865,-0.27593 -0.36749,-0.82778 v -0.55296 c -0.17218,-0.72405 -0.1766,-0.68541 0,-0.9194 0.1766,-0.2362 0.91498,-0.77152 2.11694,-1.38077 2.40391,-1.21851 6.53183,-2.72619 11.31973,-5.61354 3.81338,-2.4017 6.4237,-3.83433 8.09802,-5.3365 0.41832,-0.37747 0.74947,-0.74722 1.10594,-1.38186 0.35428,-0.63243 0.63908,-1.74498 0.27589,-2.76041 -0.36641,-1.01764 -1.10145,-1.52093 -1.65554,-1.83992 -0.55851,-0.32117 -0.99889,-0.57614 -1.56509,-0.73838 l -1.1953,-0.27483 -1.01324,0.64347 c -4.1158,2.82111 -10.23368,7.11239 -15.83066,10.03174 -2.79462,1.45913 -5.49545,2.56174 -7.54617,3.03746 -2.05072,0.47459 -3.22396,0.20198 -3.58819,-0.0927 l -0.27704,-0.18321 -0.2748,-0.18433 c -1.16664,-0.50992 -1.7715,-1.29356 -2.20854,-2.76041 -0.43704,-1.46905 -0.48345,-3.54074 -0.27705,-5.79675 0.41942,-4.52196 1.9172,-9.50307 2.57828,-12.51733 l 0.46031,-2.39288 -2.3013,-0.73618 c -1.09381,-0.33883 -0.93266,-0.22074 -1.83989,-0.55186 l -2.4834,-0.91941 -0.91934,2.39288 c -2.33879,6.00094 -3.90946,11.96768 -3.68203,17.67061 -5.49212,-3.47342 -11.75133,-7.78124 -19.5116,-9.84632 2.78359,-3.92263 5.33206,-6.88612 7.6388,-9.20393 2.94807,-2.96352 5.74493,-5.60253 8.37397,-9.75582 l 1.65778,-2.57499 -2.85313,-1.29026 c -0.49442,-0.2064 -0.56397,-0.4161 -1.74933,-1.10371 l -1.20311,-0.7384 z m -24.47937,22.54797 c 4.69521,-0.002 4.89829,12.70497 -2.57827,10.95225 -4.53631,-1.06288 -3.6644,-10.09687 2.57827,-10.95225 m 5.15328,10.12335 c 0.40724,-0.0651 0.90504,-0.0121 1.47119,0 1.17881,0.0286 2.68653,0.2042 4.32444,0.64347 3.28134,0.87968 7.1267,2.52312 10.77008,4.3255 3.64228,1.80569 7.044,3.76038 9.5715,5.3365 1.2626,0.79027 2.33655,1.43705 3.03519,1.93373 0.2373,0.16887 0.40512,0.25385 0.55409,0.36753 0.82556,1.97346 0.62473,3.12466 -0.64569,5.43033 -1.32779,2.41271 -4.07382,5.84204 -7.54611,10.49089 -3.08493,2.96246 -6.7824,7.57819 -10.67744,11.22815 -1.9679,1.84768 -3.9303,3.3807 -5.70512,4.32552 -1.75714,0.93704 -3.19416,1.2527 -4.3233,1.01212 -0.0133,0 -0.0828,0.006 -0.0938,0 -2.00547,-0.55741 -3.15551,-1.70969 -4.14113,-3.40393 -1.0033,-1.72842 -1.63239,-4.13007 -1.93264,-6.71945 -0.5905,-5.07155 -0.0261,-10.5438 0,-13.89588 0.52204,-5.09701 0.8046,-10.11671 1.47234,-13.99078 0.66114,-3.81889 1.8763,-6.13118 2.94583,-6.80776 0.2373,-0.11259 0.51107,-0.20972 0.92055,-0.27594 m 39.11473,10.76794 c 2.02425,-0.16446 4.18753,1.575 5.2427,6.3497 0.26929,6.19743 -8.48205,6.47008 -9.386,1.65556 -0.82126,-4.37291 1.53522,-7.79446 4.1433,-8.00526 m -37.73508,37.27386 c 0.25602,-0.0421 0.48229,-0.0211 0.73614,0 2.60699,0.21079 4.96232,3.63351 4.14118,8.00749 -0.9028,4.81114 -9.65535,4.54071 -9.38715,-1.65667 0.92491,-4.17981 2.72397,-6.06278 4.50983,-6.35082"
             inkscape:connector-curvature="0"
             style="fill:#55a1c8;stroke-width:0.595429" />
          <text
             id="text3221-5-1"
             y="430.78268"
             x="-606.9458"
             style="font-style:normal;font-weight:normal;font-size:27.4593px;line-height:0%;font-family:sans-serif;letter-spacing:0px;word-spacing:0px;fill:#333333;fill-opacity:1;stroke:none;stroke-width:0.462593"
             xml:space="preserve"><tspan
               id="tspan4530"
               style="font-style:normal;font-variant:normal;font-weight:normal;font-stretch:normal;font-size:27.4593px;line-height:1.25;font-family:Roboto;-inkscape-font-specification:Roboto;fill:#333333;fill-opacity:1;stroke-width:0.462593"
               y="430.78268"
               x="-606.9458"
               sodipodi:role="line">Machine Learning</tspan></text>
          <g
             id="g3058"
             transform="translate(32.891743,-226)">
            <text
               xml:space="preserve"
               style="font-style:normal;font-weight:normal;font-size:27.4593px;line-height:0%;font-family:sans-serif;text-align:center;letter-spacing:0px;word-spacing:0px;text-anchor:middle;fill:#333333;fill-opacity:1;stroke:none;stroke-width:0.462593"
               x="-810.42358"
               y="659.48578"
               id="text3221"><tspan
                 sodipodi:role="line"
                 x="-810.42358"
                 y="659.48578"
                 style="font-style:normal;font-variant:normal;font-weight:normal;font-stretch:normal;font-size:27.4593px;line-height:1.25;font-family:Roboto;-inkscape-font-specification:Roboto;text-align:center;text-anchor:middle;fill:#333333;fill-opacity:1;stroke-width:0.462593"
                 id="tspan28">Historical data</tspan></text>
            <path
               inkscape:connector-curvature="0"
               d="m -808.79802,607.56125 c -30.45946,0 -55.1638,-8.24225 -55.1638,-18.38794 0,-5.54871 0,-11.61817 0,-18.38794 0,-1.59817 0.79902,-3.1156 1.94824,-4.59698 6.15035,7.91902 27.53711,13.79095 53.21556,13.79095 25.67848,0 47.06524,-5.87193 53.21558,-13.79095 1.14924,1.48138 1.94825,2.99881 1.94825,4.59698 0,5.32417 0,10.97171 0,18.38794 0,10.14569 -24.7088,18.38794 -55.16383,18.38794 z m 0,-36.77588 c -30.45946,0 -55.1638,-8.24226 -55.1638,-18.38795 0,-5.55315 0,-11.61371 0,-18.38794 0,-0.97413 0.36805,-1.9214 0.86193,-2.85961 v 0 c 0.27839,-0.58813 0.64644,-1.1672 1.08631,-1.73737 6.15035,7.91457 27.53711,13.79096 53.21556,13.79096 25.67848,0 47.06524,-5.87639 53.21558,-13.79096 0.43986,0.57017 0.80806,1.14924 1.08631,1.73737 v 0 c 0.49389,0.93821 0.86194,1.88548 0.86194,2.85961 0,5.32417 0,10.96726 0,18.38794 0,10.14569 -24.7088,18.38795 -55.16383,18.38795 z m 0,-36.77589 c -30.45946,0 -55.1638,-8.2378 -55.1638,-18.38794 0,-2.90457 0,-5.97522 0,-9.19397 0,-2.92253 0,-5.95726 0,-9.19396 0,-10.15015 24.70434,-18.38794 55.1638,-18.38794 30.45503,0 55.16383,8.23779 55.16383,18.38794 0,2.86865 0,5.91228 0,9.19396 0,2.81479 0,5.78215 0,9.19397 0,10.15014 -24.7088,18.38794 -55.16383,18.38794 z m 0,-45.96985 c -20.30932,0 -36.77587,4.10768 -36.77587,9.19398 0,5.08627 16.46655,9.19396 36.77587,9.19396 20.30934,0 36.77589,-4.10769 36.77589,-9.19396 0,-5.0863 -16.46655,-9.19398 -36.77589,-9.19398 z"
               id="path4"
               style="fill:#e85752;stroke-width:1.28715992" />
          </g>
        </g>
      </g>
    </g>
  </g>
</svg>
